Coordinates
version=1
nRows=6
nColumns=63
inDegrees=yes

Units are S.I. units (second, meters, Newtons, ...)
If the header above contains a line with 'inDegrees', this indicates whether rotational values are in degrees (yes) or radians (no).

endheader
time	pelvis_tilt	pelvis_list	pelvis_rotation	pelvis_tx	pelvis_ty	pelvis_tz	hip_flexion_r	hip_adduction_r	hip_rotation_r	knee_angle_r	knee_angle_r_beta	ankle_angle_r	subtalar_angle_r	mtp_angle_r	hip_flexion_l	hip_adduction_l	hip_rotation_l	knee_angle_l	knee_angle_l_beta	ankle_angle_l	subtalar_angle_l	mtp_angle_l	L5_S1_Flex_Ext	L5_S1_Lat_Bending	L5_S1_axial_rotation	L4_L5_Flex_Ext	L4_L5_Lat_Bending	L4_L5_axial_rotation	L3_L4_Flex_Ext	L3_L4_Lat_Bending	L3_L4_axial_rotation	L2_L3_Flex_Ext	L2_L3_Lat_Bending	L2_L3_axial_rotation	L1_L2_Flex_Ext	L1_L2_Lat_Bending	L1_L2_axial_rotation	L1_T12_Flex_Ext	L1_T12_Lat_Bending	L1_T12_axial_rotation	Abs_r3	Abs_r2	Abs_r1	Abs_t1	Abs_t2	neck_flexion	neck_bending	neck_rotation	arm_flex_r	arm_add_r	arm_rot_r	elbow_flex_r	pro_sup_r	wrist_flex_r	wrist_dev_r	arm_flex_l	arm_add_l	arm_rot_l	elbow_flex_l	pro_sup_l	wrist_flex_l	wrist_dev_l
      5.50000000	     -2.16028636	     -3.37020281	     95.12321039	      0.19022830	      0.88948511	      0.64212264	     -1.29273831	     -2.74521168	     -4.11107383	      6.12788742	      0.10695181	     24.93362662	      7.13880974	      0.00000000	      3.46554938	      3.03033797	     11.87580458	     13.13417958	      0.22923468	     25.20223023	     -6.89434668	      0.00000000	      0.06739312	     -0.33107435	     -0.46181180	      0.12515576	     -0.44032889	     -0.49067504	      0.11072015	     -0.80497418	     -0.49067504	      0.07702359	     -0.80497418	     -0.40408533	      0.06258125	     -0.67512682	     -0.37522209	      0.03850843	     -0.51283417	     -0.34635885	      0.48138229	     -3.74517928	     -2.56845871	      0.00000000	      0.00000000	     22.28958018	      4.51676588	     -6.92658329	     11.47239781	    -17.04162626	     47.12205493	    133.50826990	     88.51302562	     11.74103004	     27.33074850	     11.25467059	    -24.56285371	     62.52627698	    104.61810980	     89.20024968	      2.59663018	      9.05456602
      5.51666667	     -2.10816890	     -3.36621844	     94.94151277	      0.19046696	      0.88961539	      0.64258819	     -1.17277993	     -2.69104022	     -3.67832824	      6.18941920	      0.10802574	     24.75778456	      6.73475778	      0.00000000	      3.51995654	      2.84233873	     10.47704253	     13.14885294	      0.22949078	     25.81126895	     -5.12037906	      0.00000000	      0.06862606	     -0.32279050	     -0.42919858	      0.12744545	     -0.42931136	     -0.45602350	      0.11274575	     -0.78483281	     -0.45602350	      0.07843272	     -0.78483281	     -0.37554876	      0.06372616	     -0.65823438	     -0.34872385	      0.03921293	     -0.50000248	     -0.32189894	      0.49018906	     -3.65147066	     -2.38707376	      0.00000000	      0.00000000	     22.25428847	      4.52017046	     -6.93764080	     11.42527446	    -17.44180418	     47.21169097	    133.00656354	     88.44555983	     10.68214027	     26.42312345	     11.01098260	    -24.55140011	     62.24357041	    104.64703311	     89.22561358	      2.14374792	      8.68749977
      5.53333333	     -2.07612178	     -3.47259680	     94.91006703	      0.19068025	      0.88950723	      0.64300851	     -0.90913828	     -2.65881256	     -3.53405193	      6.37954720	      0.11134410	     24.82914766	      6.56388519	      0.00000000	      3.71098430	      2.74102448	      9.78699706	     13.21486197	      0.23064285	     26.26988778	     -4.11942058	      0.00000000	      0.09008318	     -0.32392958	     -0.39211023	      0.16729347	     -0.43082634	     -0.41661712	      0.14799765	     -0.78760238	     -0.41661712	      0.10295606	     -0.78760238	     -0.34309645	      0.08365124	     -0.66055720	     -0.31858956	      0.05147353	     -0.50176692	     -0.29408267	      0.64345513	     -3.66435619	     -2.18079946	      0.00000000	      0.00000000	     22.06961708	      4.23364261	     -7.54632390	     11.17409532	    -17.67976445	     47.10039421	    132.89926327	     88.40914679	      9.11750796	     26.93251080	     10.87728103	    -24.48933753	     62.12089966	    104.65166504	     89.22804209	      1.96913844	      8.64607438
      5.55000000	     -2.01291190	     -3.40116513	     94.68151373	      0.19113489	      0.88970914	      0.64313649	     -0.84785015	     -2.59318963	     -3.38132577	      6.53014796	      0.11397258	     24.91108893	      6.73116426	      0.00000000	      3.62317680	      2.59443855	      9.04015059	     13.17072693	      0.22987255	     26.56959580	     -3.40162726	      0.00000000	      0.08911555	     -0.31631083	     -0.35417395	      0.16549648	     -0.42069341	     -0.37630982	      0.14640793	     -0.76907816	     -0.37630982	      0.10185016	     -0.76907816	     -0.30990220	      0.08275270	     -0.64502105	     -0.28776633	      0.05092062	     -0.48996548	     -0.26563046	      0.63654344	     -3.57817142	     -1.96980925	      0.00000000	      0.00000000	     22.04329522	      4.17217710	     -7.68970144	     11.05803056	    -17.90310011	     46.94128910	    132.32067757	     88.21627927	      8.24537808	     25.76087594	     10.32135659	    -24.33669180	     61.53131723	    104.49890669	     89.26546686	      1.74735784	      8.20769897
      5.56666667	     -2.03392261	     -3.46716269	     94.32689575	      0.19172654	      0.88954044	      0.64297261	     -0.51813831	     -2.69708788	     -3.68266302	      7.00641051	      0.12228493	     25.45139254	      7.85808646	      0.00000000	      3.60937289	      2.62495201	      9.11089644	     13.10142680	      0.22866303	     26.46016749	     -3.85301960	      0.00000000	      0.12071483	     -0.32393495	     -0.26017516	      0.22417952	     -0.43083348	     -0.27643611	      0.19832240	     -0.78761543	     -0.27643611	      0.13796498	     -0.78761543	     -0.22765326	      0.11209579	     -0.66056814	     -0.21139232	      0.06897646	     -0.50177523	     -0.19513137	      0.86225398	     -3.66441691	     -1.44701619	      0.00000000	      0.00000000	     21.63392148	      3.59159102	     -8.85771317	     10.86787914	    -18.14928814	     46.91067115	    132.24669182	     88.27986318	      6.05989904	     26.14918404	      9.90114777	    -24.20156551	     61.18813402	    104.38356226	     89.25454646	      1.82059407	      8.20002073
      5.58333333	     -1.98383203	     -3.36600137	     94.08245045	      0.19220484	      0.88962794	      0.64281485	     -0.45701005	     -2.66405737	     -3.54184078	      7.29883731	      0.12738874	     25.75868430	      8.23549892	      0.00000000	      3.44564056	      2.52990203	      8.88289091	     13.10309937	      0.22869223	     26.31403143	     -3.73649675	      0.00000000	      0.12461122	     -0.31809321	     -0.21116221	      0.23141550	     -0.42306397	     -0.22435985	      0.20472378	     -0.77341184	     -0.22435985	      0.14241816	     -0.77341184	     -0.18476694	      0.11571398	     -0.64865568	     -0.17156930	      0.07120285	     -0.49272639	     -0.15837166	      0.89008549	     -3.59833406	     -1.17442088	      0.00000000	      0.00000000	     21.41100839	      3.44428383	     -9.18636087	     10.72152628	    -18.31341911	     46.71368525	    131.81615520	     88.19446171	      5.28537895	     25.38429804	      9.40924257	    -24.06893641	     60.75906711	    104.18464177	     89.25893552	      1.44740382	      7.92630744
